# 3ds Max Wavefront OBJ Exporter v0.97b - (c)2007 guruware
# File Created: 02.02.2021 20:02:55

mtllib chair.mtl

#
# object Box001
#

v  -9.7639 17.7165 9.7088
v  -9.7639 17.7165 -9.9763
v  9.9211 17.7165 -9.9763
v  9.9211 17.7165 9.7088
v  -9.7639 19.6850 9.7088
v  9.9211 19.6850 9.7088
v  9.9211 19.6850 -9.9763
v  -9.7639 19.6850 -9.9763
v  2.0850 19.6850 9.3151
v  2.0850 19.6850 8.1340
v  3.6598 19.6850 8.1340
v  3.6598 19.6850 9.3151
v  2.0850 40.9449 9.3151
v  3.6598 40.9449 9.3151
v  3.6598 40.9449 8.1340
v  2.0850 40.9449 8.1340
v  4.9256 19.6850 9.3151
v  4.9256 19.6850 8.1340
v  6.5004 19.6850 8.1340
v  6.5004 19.6850 9.3151
v  4.9256 40.9449 9.3151
v  6.5004 40.9449 9.3151
v  6.5004 40.9449 8.1340
v  4.9256 40.9449 8.1340
v  -3.5662 19.6850 9.3151
v  -3.5662 19.6850 8.1340
v  -1.9913 19.6850 8.1340
v  -1.9913 19.6850 9.3151
v  -3.5662 40.9449 9.3151
v  -1.9913 40.9449 9.3151
v  -1.9913 40.9449 8.1340
v  -3.5662 40.9449 8.1340
v  -6.4360 19.6850 9.3151
v  -6.4360 19.6850 8.1340
v  -4.8612 19.6850 8.1340
v  -4.8612 19.6850 9.3151
v  -6.4360 40.9449 9.3151
v  -4.8612 40.9449 9.3151
v  -4.8612 40.9449 8.1340
v  -6.4360 40.9449 8.1340
v  7.9526 19.6850 9.7088
v  7.9526 19.6850 7.7403
v  9.9211 19.6850 7.7403
v  7.9526 43.3071 9.7088
v  9.9211 43.3071 9.7088
v  9.9211 43.3071 7.7403
v  7.9526 43.3071 7.7403
v  -9.7639 19.6850 7.7403
v  -7.7954 19.6850 7.7403
v  -7.7954 19.6850 9.7088
v  -9.7639 43.3071 9.7088
v  -7.7954 43.3071 9.7088
v  -7.7954 43.3071 7.7403
v  -9.7639 43.3071 7.7403
v  -7.7954 40.9449 9.3151
v  -7.7954 40.9449 8.1340
v  7.9526 40.9449 8.1340
v  7.9526 40.9449 9.3151
v  -7.7954 42.9134 9.3151
v  7.9526 42.9134 9.3151
v  7.9526 42.9134 8.1340
v  -7.7954 42.9134 8.1340
v  -0.7088 19.6850 9.3151
v  -0.7088 19.6850 8.1340
v  0.8660 19.6850 8.1340
v  0.8660 19.6850 9.3151
v  -0.7088 40.9449 9.3151
v  0.8660 40.9449 9.3151
v  0.8660 40.9449 8.1340
v  -0.7088 40.9449 8.1340
v  -9.7639 0.0000 -8.0078
v  -9.7639 0.0000 -9.9763
v  -7.7954 0.0000 -9.9763
v  -7.7954 0.0000 -8.0078
v  -9.7639 17.7165 -8.0078
v  -7.7954 17.7165 -8.0078
v  -7.7954 17.7165 -9.9763
v  7.9526 0.0000 -8.0078
v  7.9526 0.0000 -9.9763
v  9.9211 0.0000 -9.9763
v  9.9211 0.0000 -8.0078
v  7.9526 17.7165 -8.0078
v  9.9211 17.7165 -8.0078
v  7.9526 17.7165 -9.9763
v  -9.7639 0.0000 9.7088
v  -9.7639 0.0000 7.7403
v  -7.7954 0.0000 7.7403
v  -7.7954 0.0000 9.7088
v  -7.7954 17.7165 9.7088
v  -7.7954 17.7165 7.7403
v  -9.7639 17.7165 7.7403
v  7.9526 0.0000 9.7088
v  7.9526 0.0000 7.7403
v  9.9211 0.0000 7.7403
v  9.9211 0.0000 9.7088
v  7.9526 17.7165 9.7088
v  9.9211 17.7165 7.7403
v  7.9526 17.7165 7.7403
# 98 vertices

vn -0.5774 -0.5774 0.5774
vn -0.5774 -0.5774 -0.5774
vn 0.5774 -0.5774 -0.5774
vn 0.5774 -0.5774 0.5774
vn -0.5774 0.5774 0.5774
vn 0.5774 0.5774 0.5774
vn 0.5774 0.5774 -0.5774
vn -0.5774 0.5774 -0.5774
# 8 vertex normals

vt 0.4725 0.9941 0.0000
vt 0.4725 0.6330 0.0000
vt 0.8336 0.6330 0.0000
vt 0.8336 0.9941 0.0000
vt 0.0713 0.6330 0.0000
vt 0.4324 0.6330 0.0000
vt 0.4324 0.9941 0.0000
vt 0.0713 0.9941 0.0000
vt 0.1185 0.5055 0.0000
vt 0.4796 0.5055 0.0000
vt 0.4796 0.5417 0.0000
vt 0.1185 0.5417 0.0000
vt 0.8721 0.6330 0.0000
vt 0.8721 0.9941 0.0000
vt 0.8359 0.9941 0.0000
vt 0.8359 0.6330 0.0000
vt 0.4796 0.5794 0.0000
vt 0.1185 0.5794 0.0000
vt 0.1185 0.5433 0.0000
vt 0.4796 0.5433 0.0000
vt 0.4709 0.6330 0.0000
vt 0.4709 0.9941 0.0000
vt 0.4347 0.9941 0.0000
vt 0.4347 0.6330 0.0000
vt 0.7935 0.5886 0.0000
vt 0.7935 0.5669 0.0000
vt 0.8224 0.5669 0.0000
vt 0.8224 0.5886 0.0000
vt 0.9851 0.4253 0.0000
vt 0.9851 0.4542 0.0000
vt 0.9634 0.4542 0.0000
vt 0.9634 0.4253 0.0000
vt 0.0383 0.4914 0.0000
vt 0.0672 0.4914 0.0000
vt 0.0672 0.8814 0.0000
vt 0.0383 0.8814 0.0000
vt 0.5085 0.3781 0.0000
vt 0.5085 0.3998 0.0000
vt 0.1185 0.3998 0.0000
vt 0.1185 0.3781 0.0000
vt 0.4755 0.1515 0.0000
vt 0.4755 0.1804 0.0000
vt 0.0855 0.1804 0.0000
vt 0.0855 0.1515 0.0000
vt 0.5085 0.2082 0.0000
vt 0.5085 0.2298 0.0000
vt 0.1185 0.2298 0.0000
vt 0.1185 0.2082 0.0000
vt 0.8973 0.5650 0.0000
vt 0.8973 0.5433 0.0000
vt 0.9262 0.5433 0.0000
vt 0.9262 0.5650 0.0000
vt 0.8359 0.5669 0.0000
vt 0.8648 0.5669 0.0000
vt 0.8648 0.5886 0.0000
vt 0.8359 0.5886 0.0000
vt 0.8767 0.1515 0.0000
vt 0.8767 0.1804 0.0000
vt 0.4867 0.1804 0.0000
vt 0.4867 0.1515 0.0000
vt 0.9192 0.0713 0.0000
vt 0.9192 0.0930 0.0000
vt 0.5291 0.0930 0.0000
vt 0.5291 0.0713 0.0000
vt 0.9192 0.1185 0.0000
vt 0.9192 0.1474 0.0000
vt 0.5291 0.1474 0.0000
vt 0.5291 0.1185 0.0000
vt 0.9192 0.0949 0.0000
vt 0.9192 0.1166 0.0000
vt 0.5291 0.1166 0.0000
vt 0.5291 0.0949 0.0000
vt 0.9026 0.6377 0.0000
vt 0.9026 0.6594 0.0000
vt 0.8737 0.6594 0.0000
vt 0.8737 0.6377 0.0000
vt 0.8784 0.5669 0.0000
vt 0.9073 0.5669 0.0000
vt 0.9073 0.5886 0.0000
vt 0.8784 0.5886 0.0000
vt 0.5085 0.3120 0.0000
vt 0.5085 0.3409 0.0000
vt 0.1185 0.3409 0.0000
vt 0.1185 0.3120 0.0000
vt 0.5085 0.2318 0.0000
vt 0.5085 0.2534 0.0000
vt 0.1185 0.2534 0.0000
vt 0.1185 0.2318 0.0000
vt 0.5085 0.2790 0.0000
vt 0.5085 0.3079 0.0000
vt 0.1185 0.3079 0.0000
vt 0.1185 0.2790 0.0000
vt 0.5085 0.2554 0.0000
vt 0.5085 0.2770 0.0000
vt 0.1185 0.2770 0.0000
vt 0.1185 0.2554 0.0000
vt 0.9728 0.3828 0.0000
vt 0.9945 0.3828 0.0000
vt 0.9945 0.4117 0.0000
vt 0.9728 0.4117 0.0000
vt 0.9567 0.5150 0.0000
vt 0.9567 0.5439 0.0000
vt 0.9351 0.5439 0.0000
vt 0.9351 0.5150 0.0000
vt 0.5085 0.3451 0.0000
vt 0.5085 0.3740 0.0000
vt 0.1185 0.3740 0.0000
vt 0.1185 0.3451 0.0000
vt 0.5085 0.4017 0.0000
vt 0.5085 0.4234 0.0000
vt 0.1185 0.4234 0.0000
vt 0.1185 0.4017 0.0000
vt 0.5085 0.4489 0.0000
vt 0.5085 0.4778 0.0000
vt 0.1185 0.4778 0.0000
vt 0.1185 0.4489 0.0000
vt 0.5085 0.4253 0.0000
vt 0.5085 0.4470 0.0000
vt 0.1185 0.4470 0.0000
vt 0.1185 0.4253 0.0000
vt 0.8218 0.5653 0.0000
vt 0.8218 0.5291 0.0000
vt 0.8579 0.5291 0.0000
vt 0.8579 0.5653 0.0000
vt 0.0052 0.9398 0.0000
vt 0.0413 0.9398 0.0000
vt 0.0413 0.9759 0.0000
vt 0.0052 0.9759 0.0000
vt 0.5188 0.1138 0.0000
vt 0.5188 0.1499 0.0000
vt 0.0855 0.1499 0.0000
vt 0.0855 0.1138 0.0000
vt 0.9106 0.0005 0.0000
vt 0.9106 0.0366 0.0000
vt 0.4772 0.0366 0.0000
vt 0.4772 0.0005 0.0000
vt 0.4716 0.0005 0.0000
vt 0.4716 0.0366 0.0000
vt 0.0383 0.0366 0.0000
vt 0.0383 0.0005 0.0000
vt 0.0005 0.4442 0.0000
vt 0.0366 0.4442 0.0000
vt 0.0366 0.8775 0.0000
vt 0.0005 0.8775 0.0000
vt 0.9351 0.4095 0.0000
vt 0.9351 0.3734 0.0000
vt 0.9712 0.3734 0.0000
vt 0.9712 0.4095 0.0000
vt 0.9256 0.4206 0.0000
vt 0.9617 0.4206 0.0000
vt 0.9617 0.4567 0.0000
vt 0.9256 0.4567 0.0000
vt 0.0005 0.0052 0.0000
vt 0.0366 0.0052 0.0000
vt 0.0366 0.4386 0.0000
vt 0.0005 0.4386 0.0000
vt 0.0383 0.0477 0.0000
vt 0.0744 0.0477 0.0000
vt 0.0744 0.4811 0.0000
vt 0.0383 0.4811 0.0000
vt 0.5188 0.0760 0.0000
vt 0.5188 0.1121 0.0000
vt 0.0855 0.1121 0.0000
vt 0.0855 0.0760 0.0000
vt 0.5188 0.0383 0.0000
vt 0.5188 0.0744 0.0000
vt 0.0855 0.0744 0.0000
vt 0.0855 0.0383 0.0000
vt 0.1185 0.6027 0.0000
vt 0.1185 0.5811 0.0000
vt 0.4074 0.5811 0.0000
vt 0.4074 0.6027 0.0000
vt 0.0807 0.6047 0.0000
vt 0.3696 0.6047 0.0000
vt 0.3696 0.6263 0.0000
vt 0.0807 0.6263 0.0000
vt 0.4914 0.5244 0.0000
vt 0.7803 0.5244 0.0000
vt 0.7803 0.5605 0.0000
vt 0.4914 0.5605 0.0000
vt 0.0430 0.9398 0.0000
vt 0.0646 0.9398 0.0000
vt 0.0646 0.9759 0.0000
vt 0.0430 0.9759 0.0000
vt 0.4914 0.5622 0.0000
vt 0.7803 0.5622 0.0000
vt 0.7803 0.5983 0.0000
vt 0.4914 0.5983 0.0000
vt 0.0430 0.8926 0.0000
vt 0.0646 0.8926 0.0000
vt 0.0646 0.9287 0.0000
vt 0.0430 0.9287 0.0000
vt 0.9356 0.6377 0.0000
vt 0.9356 0.6594 0.0000
vt 0.9067 0.6594 0.0000
vt 0.9067 0.6377 0.0000
vt 0.9687 0.6594 0.0000
vt 0.9398 0.6594 0.0000
vt 0.9398 0.6377 0.0000
vt 0.9687 0.6377 0.0000
vt 0.9192 0.0383 0.0000
vt 0.9192 0.0672 0.0000
vt 0.5291 0.0672 0.0000
vt 0.5291 0.0383 0.0000
vt 0.5085 0.4819 0.0000
vt 0.5085 0.5036 0.0000
vt 0.1185 0.5036 0.0000
vt 0.1185 0.4819 0.0000
vt 0.0760 0.1940 0.0000
vt 0.1049 0.1940 0.0000
vt 0.1049 0.5840 0.0000
vt 0.0760 0.5840 0.0000
vt 0.5085 0.1846 0.0000
vt 0.5085 0.2062 0.0000
vt 0.1185 0.2062 0.0000
vt 0.1185 0.1846 0.0000
vt 0.9634 0.3717 0.0000
vt 0.9634 0.3356 0.0000
vt 0.9995 0.3356 0.0000
vt 0.9995 0.3717 0.0000
vt 0.9256 0.3356 0.0000
vt 0.9617 0.3356 0.0000
vt 0.9617 0.3717 0.0000
vt 0.9256 0.3717 0.0000
vt 0.6991 0.1940 0.0000
vt 0.7352 0.1940 0.0000
vt 0.7352 0.5190 0.0000
vt 0.6991 0.5190 0.0000
vt 0.7746 0.1940 0.0000
vt 0.8107 0.1940 0.0000
vt 0.8107 0.5190 0.0000
vt 0.7746 0.5190 0.0000
vt 0.8737 0.6707 0.0000
vt 0.9098 0.6707 0.0000
vt 0.9098 0.9958 0.0000
vt 0.8737 0.9958 0.0000
vt 0.7368 0.1940 0.0000
vt 0.7729 0.1940 0.0000
vt 0.7729 0.5190 0.0000
vt 0.7368 0.5190 0.0000
vt 0.4206 0.6172 0.0000
vt 0.4206 0.5811 0.0000
vt 0.4567 0.5811 0.0000
vt 0.4567 0.6172 0.0000
vt 0.8595 0.5291 0.0000
vt 0.8957 0.5291 0.0000
vt 0.8957 0.5653 0.0000
vt 0.8595 0.5653 0.0000
vt 0.9115 0.6707 0.0000
vt 0.9476 0.6707 0.0000
vt 0.9476 0.9958 0.0000
vt 0.9115 0.9958 0.0000
vt 0.6613 0.1940 0.0000
vt 0.6974 0.1940 0.0000
vt 0.6974 0.5190 0.0000
vt 0.6613 0.5190 0.0000
vt 0.9492 0.6707 0.0000
vt 0.9853 0.6707 0.0000
vt 0.9853 0.9958 0.0000
vt 0.9492 0.9958 0.0000
vt 0.6235 0.1940 0.0000
vt 0.6597 0.1940 0.0000
vt 0.6597 0.5190 0.0000
vt 0.6235 0.5190 0.0000
vt 0.0052 0.9287 0.0000
vt 0.0052 0.8926 0.0000
vt 0.0413 0.8926 0.0000
vt 0.0413 0.9287 0.0000
vt 0.8973 0.4961 0.0000
vt 0.9334 0.4961 0.0000
vt 0.9334 0.5322 0.0000
vt 0.8973 0.5322 0.0000
vt 0.8879 0.1610 0.0000
vt 0.9240 0.1610 0.0000
vt 0.9240 0.4860 0.0000
vt 0.8879 0.4860 0.0000
vt 0.9634 0.0005 0.0000
vt 0.9995 0.0005 0.0000
vt 0.9995 0.3255 0.0000
vt 0.9634 0.3255 0.0000
vt 0.8501 0.1940 0.0000
vt 0.8862 0.1940 0.0000
vt 0.8862 0.5190 0.0000
vt 0.8501 0.5190 0.0000
vt 0.8123 0.1940 0.0000
vt 0.8485 0.1940 0.0000
vt 0.8485 0.5190 0.0000
vt 0.8123 0.5190 0.0000
vt 0.9351 0.5039 0.0000
vt 0.9351 0.4678 0.0000
vt 0.9712 0.4678 0.0000
vt 0.9712 0.5039 0.0000
vt 0.7840 0.5291 0.0000
vt 0.8201 0.5291 0.0000
vt 0.8201 0.5653 0.0000
vt 0.7840 0.5653 0.0000
vt 0.5103 0.1940 0.0000
vt 0.5464 0.1940 0.0000
vt 0.5464 0.5190 0.0000
vt 0.5103 0.5190 0.0000
vt 0.9256 0.0005 0.0000
vt 0.9617 0.0005 0.0000
vt 0.9617 0.3255 0.0000
vt 0.9256 0.3255 0.0000
vt 0.5480 0.1940 0.0000
vt 0.5841 0.1940 0.0000
vt 0.5841 0.5190 0.0000
vt 0.5480 0.5190 0.0000
vt 0.5858 0.1940 0.0000
vt 0.6219 0.1940 0.0000
vt 0.6219 0.5190 0.0000
vt 0.5858 0.5190 0.0000
# 312 texture coords

o Box001
g Box001
usemtl wire_196088225
s 2
f 1/1/1 2/2/2 3/3/3 4/4/4 
s 4
f 5/5/5 6/6/6 7/7/7 8/8/8 
s 8
f 1/9/1 4/10/4 6/11/6 5/12/5 
s 16
f 4/13/4 3/14/3 7/15/7 6/16/6 
s 32
f 3/17/3 2/18/2 8/19/8 7/20/7 
s 64
f 2/21/2 1/22/1 5/23/5 8/24/8 
s 2
f 9/25/1 10/26/2 11/27/3 12/28/4 
s 4
f 13/29/5 14/30/6 15/31/7 16/32/8 
s 8
f 9/33/1 12/34/4 14/35/6 13/36/5 
s 16
f 12/37/4 11/38/3 15/39/7 14/40/6 
s 32
f 11/41/3 10/42/2 16/43/8 15/44/7 
s 64
f 10/45/2 9/46/1 13/47/5 16/48/8 
s 2
f 17/49/1 18/50/2 19/51/3 20/52/4 
s 4
f 21/53/5 22/54/6 23/55/7 24/56/8 
s 8
f 17/57/1 20/58/4 22/59/6 21/60/5 
s 16
f 20/61/4 19/62/3 23/63/7 22/64/6 
s 32
f 19/65/3 18/66/2 24/67/8 23/68/7 
s 64
f 18/69/2 17/70/1 21/71/5 24/72/8 
s 2
f 25/73/1 26/74/2 27/75/3 28/76/4 
s 4
f 29/77/5 30/78/6 31/79/7 32/80/8 
s 8
f 25/81/1 28/82/4 30/83/6 29/84/5 
s 16
f 28/85/4 27/86/3 31/87/7 30/88/6 
s 32
f 27/89/3 26/90/2 32/91/8 31/92/7 
s 64
f 26/93/2 25/94/1 29/95/5 32/96/8 
s 2
f 33/97/1 34/98/2 35/99/3 36/100/4 
s 4
f 37/101/5 38/102/6 39/103/7 40/104/8 
s 8
f 33/105/1 36/106/4 38/107/6 37/108/5 
s 16
f 36/109/4 35/110/3 39/111/7 38/112/6 
s 32
f 35/113/3 34/114/2 40/115/8 39/116/7 
s 64
f 34/117/2 33/118/1 37/119/5 40/120/8 
s 2
f 41/121/1 42/122/2 43/123/3 6/124/4 
s 4
f 44/125/5 45/126/6 46/127/7 47/128/8 
s 8
f 41/129/1 6/130/4 45/131/6 44/132/5 
s 16
f 6/133/4 43/134/3 46/135/7 45/136/6 
s 32
f 43/137/3 42/138/2 47/139/8 46/140/7 
s 64
f 42/141/2 41/142/1 44/143/5 47/144/8 
s 2
f 5/145/1 48/146/2 49/147/3 50/148/4 
s 4
f 51/149/5 52/150/6 53/151/7 54/152/8 
s 8
f 5/153/1 50/154/4 52/155/6 51/156/5 
s 16
f 50/157/4 49/158/3 53/159/7 52/160/6 
s 32
f 49/161/3 48/162/2 54/163/8 53/164/7 
s 64
f 48/165/2 5/166/1 51/167/5 54/168/8 
s 2
f 55/169/1 56/170/2 57/171/3 58/172/4 
s 4
f 59/173/5 60/174/6 61/175/7 62/176/8 
s 8
f 55/177/1 58/178/4 60/179/6 59/180/5 
s 16
f 58/181/4 57/182/3 61/183/7 60/184/6 
s 32
f 57/185/3 56/186/2 62/187/8 61/188/7 
s 64
f 56/189/2 55/190/1 59/191/5 62/192/8 
s 2
f 63/193/1 64/194/2 65/195/3 66/196/4 
s 4
f 67/197/5 68/198/6 69/199/7 70/200/8 
s 8
f 63/201/1 66/202/4 68/203/6 67/204/5 
s 16
f 66/205/4 65/206/3 69/207/7 68/208/6 
s 32
f 65/209/3 64/210/2 70/211/8 69/212/7 
s 64
f 64/213/2 63/214/1 67/215/5 70/216/8 
s 2
f 71/217/1 72/218/2 73/219/3 74/220/4 
s 4
f 75/221/5 76/222/6 77/223/7 2/224/8 
s 8
f 71/225/1 74/226/4 76/227/6 75/228/5 
s 16
f 74/229/4 73/230/3 77/231/7 76/232/6 
s 32
f 73/233/3 72/234/2 2/235/8 77/236/7 
s 64
f 72/237/2 71/238/1 75/239/5 2/240/8 
s 2
f 78/241/1 79/242/2 80/243/3 81/244/4 
s 4
f 82/245/5 83/246/6 3/247/7 84/248/8 
s 8
f 78/249/1 81/250/4 83/251/6 82/252/5 
s 16
f 81/253/4 80/254/3 3/255/7 83/256/6 
s 32
f 80/257/3 79/258/2 84/259/8 3/260/7 
s 64
f 79/261/2 78/262/1 82/263/5 84/264/8 
s 2
f 85/265/1 86/266/2 87/267/3 88/268/4 
s 4
f 1/269/5 89/270/6 90/271/7 91/272/8 
s 8
f 85/273/1 88/274/4 89/275/6 1/276/5 
s 16
f 88/277/4 87/278/3 90/279/7 89/280/6 
s 32
f 87/281/3 86/282/2 91/283/8 90/284/7 
s 64
f 86/285/2 85/286/1 1/287/5 91/288/8 
s 2
f 92/289/1 93/290/2 94/291/3 95/292/4 
s 4
f 96/293/5 4/294/6 97/295/7 98/296/8 
s 8
f 92/297/1 95/298/4 4/299/6 96/300/5 
s 16
f 95/301/4 94/302/3 97/303/7 4/304/6 
s 32
f 94/305/3 93/306/2 98/307/8 97/308/7 
s 64
f 93/309/2 92/310/1 96/311/5 98/312/8 
# 78 polygons

